<?xml version="1.0" standalone="no"?>
<!DOCTYPE svg PUBLIC "-//W3C//DTD SVG 20010904//EN"
 "http://www.w3.org/TR/2001/REC-SVG-20010904/DTD/svg10.dtd">
<svg version="1.0" xmlns="http://www.w3.org/2000/svg"
 width="1414.000000pt" height="1414.000000pt" viewBox="0 0 1414.000000 1414.000000"
 preserveAspectRatio="xMidYMid meet">

<g transform="translate(0.000000,1414.000000) scale(0.100000,-0.100000)"
fill="#000000" stroke="none">
<path d="M0 7070 l0 -7070 7070 0 7070 0 0 7070 0 7070 -7070 0 -7070 0 0
-7070z m7440 6860 c810 -42 1523 -197 2250 -490 1066 -430 2031 -1142 2762
-2040 654 -804 1126 -1754 1363 -2742 117 -489 174 -954 182 -1483 9 -597 -31
-1038 -148 -1605 -116 -560 -360 -1229 -641 -1755 -548 -1026 -1317 -1876
-2283 -2525 -507 -341 -1174 -660 -1758 -840 -438 -136 -910 -232 -1377 -281
-257 -27 -867 -38 -1138 -20 -1336 88 -2618 560 -3677 1355 -650 488 -1185
1055 -1642 1741 -533 801 -918 1804 -1052 2740 -59 414 -75 636 -76 1045 0
359 8 510 46 835 148 1289 673 2522 1508 3545 279 341 655 716 991 986 474
381 960 685 1470 917 1016 463 2117 674 3220 617z m-5723 -12455 c1 -5 -2 -17
-8 -25 -8 -11 -12 -12 -16 -2 -2 6 -8 10 -13 7 -7 -4 -7 7 -1 33 2 8 35 -4 38
-13z m422 1 c9 -11 6 -13 -14 -13 -20 0 -23 2 -14 13 6 8 13 14 14 14 1 0 8
-6 14 -14z m-924 -9 c36 -4 115 -44 115 -57 0 -6 6 -10 14 -10 8 0 18 -5 22
-12 5 -8 1 -9 -12 -4 -12 5 -15 4 -9 -2 6 -6 19 -12 30 -14 11 -2 26 -17 34
-33 8 -17 18 -32 23 -33 4 -2 6 -8 2 -13 -3 -5 0 -9 5 -9 6 0 10 -3 9 -7 -1
-5 3 -18 10 -31 7 -12 15 -35 17 -50 2 -15 7 -42 11 -59 4 -19 2 -33 -3 -33
-5 0 -7 -14 -5 -31 3 -23 1 -30 -7 -25 -8 6 -10 0 -6 -21 5 -22 4 -25 -5 -13
-9 13 -11 12 -9 -5 3 -35 -1 -46 -12 -39 -8 4 -9 0 -4 -15 4 -14 1 -23 -9 -27
-9 -3 -13 -10 -10 -15 3 -5 -3 -6 -12 -2 -12 4 -15 3 -10 -5 4 -7 -2 -22 -14
-34 -16 -17 -23 -19 -33 -9 -10 10 -8 11 7 5 13 -5 17 -4 12 4 -4 7 -2 12 4
12 6 0 9 4 5 9 -3 5 3 16 13 23 11 7 20 16 21 20 1 4 9 24 17 43 8 20 17 49
21 66 3 16 9 29 14 29 4 0 7 8 7 18 0 9 3 26 7 36 6 13 5 17 -2 13 -6 -4 -13
4 -15 18 -3 14 -1 25 4 25 5 0 2 7 -7 16 -9 9 -14 23 -11 31 3 8 -3 24 -14 35
-11 12 -17 24 -15 28 7 11 -89 103 -129 124 -20 11 -36 22 -36 25 0 7 -25 11
-68 11 -13 0 -21 4 -18 9 3 5 -17 9 -44 9 -28 1 -48 -3 -45 -8 3 -4 -6 -7 -19
-6 -19 1 -22 4 -13 14 10 13 60 12 172 -1z m-204 -4 c-11 -5 -11 -7 0 -15 10
-6 7 -7 -10 -3 -15 5 -21 3 -17 -3 3 -6 -16 -20 -44 -33 -27 -12 -47 -26 -44
-30 3 -5 -3 -6 -12 -2 -12 4 -15 3 -10 -5 4 -7 -3 -22 -16 -36 -13 -13 -24
-29 -26 -37 -2 -7 -13 -26 -25 -43 -12 -17 -22 -44 -23 -61 -1 -77 -5 -105
-14 -105 -16 0 -26 33 -12 38 8 2 11 17 7 40 -4 30 -3 33 5 17 9 -17 10 -16 6
8 -5 37 14 87 34 88 11 0 11 2 2 6 -9 3 -6 12 12 28 14 13 22 26 18 31 -4 4
-1 3 7 -1 11 -6 13 -4 8 7 -6 17 21 48 41 48 7 0 12 4 12 10 0 10 88 59 105
59 6 0 4 -3 -4 -6z m1019 -7 c0 -2 -7 -6 -15 -10 -8 -3 -15 -1 -15 4 0 6 7 10
15 10 8 0 15 -2 15 -4z m105 -6 c3 -6 -4 -10 -17 -10 -18 0 -20 2 -8 10 19 12
18 12 25 0z m-445 -20 c0 -5 7 -7 15 -4 12 5 15 -4 15 -46 0 -41 -3 -51 -14
-47 -8 3 -17 -1 -20 -9 -4 -12 -1 -14 14 -9 21 7 28 -10 8 -18 -8 -4 -9 -6 -2
-6 6 -1 17 6 24 14 7 8 20 15 29 15 14 0 14 -2 1 -10 -8 -5 -12 -12 -8 -15 3
-3 13 1 21 10 20 19 23 19 23 -3 0 -16 -9 -18 -61 -18 l-60 1 -2 78 c0 42 3
77 8 77 5 0 9 -4 9 -10z m337 -9 c0 -11 -5 -17 -9 -15 -5 3 -5 10 -2 16 4 7 2
8 -4 4 -6 -4 -9 -13 -5 -21 6 -18 -8 -20 -25 -3 -10 10 -7 15 10 25 31 17 37
16 35 -6z m-127 0 c0 -5 8 -8 17 -7 15 1 19 -15 14 -64 -1 -5 -16 -8 -33 -6
-36 4 -68 -8 -68 -26 0 -6 6 -5 17 3 11 10 14 10 9 2 -5 -9 0 -13 13 -14 37
-2 41 -4 44 -14 4 -18 -47 -16 -72 3 -19 16 -22 22 -13 39 9 16 20 20 51 18
36 -2 39 0 43 25 4 24 1 27 -21 25 -31 -3 -82 -23 -62 -24 11 -1 10 -6 -4 -21
-19 -21 -35 -19 -17 2 6 7 11 18 13 23 2 10 48 43 62 44 4 1 7 -3 7 -8z m337
-9 c11 3 20 0 20 -6 0 -8 -12 -10 -30 -8 -27 4 -29 2 -24 -17 4 -16 2 -20 -6
-12 -7 5 -15 10 -19 10 -9 1 -8 8 0 29 4 11 6 11 13 0 6 -10 9 -8 9 7 0 15 2
17 9 6 5 -8 18 -12 28 -9z m-167 -4 c0 -4 -7 -8 -15 -8 -8 0 -15 4 -15 8 0 5
7 9 15 9 8 0 15 -4 15 -9z m-110 -49 c0 -10 -3 -19 -7 -19 -5 0 -8 11 -8 24 0
13 3 22 8 19 4 -2 7 -13 7 -24z m67 17 c0 -8 -6 -12 -14 -9 -7 3 -10 9 -7 14
8 14 21 11 21 -5z m-12 -47 c-5 -14 -3 -17 9 -13 12 5 15 2 10 -10 -3 -9 -2
-16 4 -16 6 0 12 6 15 13 2 6 8 9 12 5 10 -10 -3 -28 -21 -28 -24 0 -42 24
-41 52 1 15 6 24 10 21 4 -2 5 -13 2 -24z m245 16 c7 -9 11 -17 9 -19 -7 -7
-49 13 -49 24 0 15 26 12 40 -5z m-322 -50 c-3 -3 -9 2 -12 12 -6 14 -5 15 5
6 7 -7 10 -15 7 -18z m284 16 c11 6 25 6 35 1 14 -9 14 -11 -5 -21 -15 -8 -22
-8 -22 -1 0 5 -5 10 -11 10 -5 0 -8 -4 -5 -9 4 -5 -2 -8 -11 -6 -10 2 -23 4
-30 4 -7 1 -10 8 -7 16 4 10 11 12 22 6 10 -6 24 -6 34 0z m-162 -116 c0 -26
-3 -33 -15 -29 -8 4 -15 16 -14 28 0 20 1 20 9 1 8 -19 9 -19 9 2 1 12 -5 24
-11 26 -8 3 -6 6 5 6 13 1 17 -7 17 -34z m-290 15 c0 -5 -20 -10 -44 -10 -25
0 -48 5 -51 10 -4 6 13 10 44 10 28 0 51 -4 51 -10z m30 -11 c0 -11 -3 -18 -7
-16 -11 7 -85 -7 -81 -14 2 -3 -2 -12 -8 -20 -17 -22 -24 -49 -14 -49 6 0 10
6 10 13 0 9 14 14 38 15 40 2 72 -12 58 -25 -5 -4 -11 -2 -13 5 -6 15 -39 16
-49 1 -4 -8 -9 -7 -15 2 -6 10 -9 8 -9 -9 0 -12 -7 -25 -15 -28 -8 -4 -15 -10
-15 -15 0 -4 7 -6 15 -3 9 4 15 0 15 -9 0 -9 5 -19 12 -23 6 -4 8 -3 4 4 -3 6
-2 13 4 17 5 3 10 -2 10 -13 0 -15 -8 -19 -35 -20 l-35 -1 0 92 0 92 50 -3
c39 -3 51 0 56 12 9 23 24 20 24 -5z m179 -75 c16 -36 14 -101 -4 -107 -20 -8
-23 1 -26 61 -2 29 -6 52 -10 52 -5 0 -6 6 -3 14 8 20 29 10 43 -20z m74 23
c6 4 8 0 4 -10 -3 -10 -2 -17 2 -17 5 0 12 7 15 16 3 8 10 13 15 9 5 -3 13 0
16 6 5 7 15 3 29 -10 28 -26 38 -131 12 -131 -10 0 -15 14 -18 49 -1 27 0 47
5 44 4 -2 7 3 7 11 0 10 -6 13 -17 10 -15 -5 -16 -4 -3 5 12 9 10 10 -13 9
-16 -2 -29 -10 -33 -20 -3 -10 -9 -16 -13 -13 -5 2 -7 -16 -6 -40 1 -24 -3
-46 -9 -48 -7 -3 -11 22 -12 71 0 42 2 70 4 64 2 -7 9 -9 15 -5z m223 -4 c-2
-2 -10 -5 -18 -7 -7 -1 -19 -5 -25 -9 -7 -5 -18 -5 -23 -2 -15 9 -1 27 16 21
7 -3 16 -1 19 4 3 5 12 7 21 3 8 -3 13 -8 10 -10z m202 2 c22 -16 24 -46 6
-89 -5 -14 -4 -17 4 -12 14 9 15 -3 2 -24 -14 -22 -22 -6 -26 51 -2 29 -6 54
-8 57 -9 8 -76 -9 -76 -19 0 -6 5 -7 10 -4 6 4 10 -11 10 -38 0 -48 -5 -58
-26 -50 -10 4 -13 23 -13 69 1 56 4 64 20 64 10 0 19 -4 19 -9 0 -4 11 -6 25
-3 14 2 22 8 19 13 -8 14 9 11 34 -6z m159 -1 c9 -9 7 -13 -8 -17 -10 -3 -17
-1 -13 4 9 15 -13 10 -26 -6 -7 -8 -15 -13 -19 -11 -3 2 -6 -14 -6 -37 1 -25
6 -42 14 -45 10 -3 11 0 5 9 -6 12 -5 12 8 1 8 -7 22 -10 31 -6 8 3 18 1 22
-5 4 -7 0 -8 -11 -4 -12 4 -15 3 -10 -5 5 -8 -3 -11 -26 -8 -36 4 -68 37 -68
71 0 26 24 50 40 40 5 -3 10 -2 10 4 0 5 -6 12 -12 15 -7 3 -3 3 10 0 12 -3
22 -1 22 4 0 13 24 11 37 -4z m126 2 c-4 -5 1 -7 11 -3 14 6 17 3 12 -9 -5
-12 -2 -15 9 -10 9 3 14 2 10 -3 -3 -5 0 -11 7 -13 6 -2 9 -11 5 -20 -5 -13
-19 -16 -74 -14 -81 4 -82 4 -65 15 7 4 14 14 15 22 4 23 18 40 28 34 5 -4 9
-2 9 2 0 5 9 9 19 9 11 0 17 -5 14 -10z m-877 -19 c1 -11 -2 -14 -9 -10 -7 4
-7 0 1 -9 19 -24 12 -92 -11 -96 -16 -3 -17 4 -15 66 2 53 6 69 17 67 8 -1 15
-9 17 -18z m425 6 c12 -15 12 -16 -6 -10 -20 7 -20 7 -1 -8 16 -12 17 -23 3
-12 -2 1 -11 -4 -20 -12 -11 -9 -17 -10 -17 -2 0 6 5 11 10 11 6 0 10 6 9 13
-2 17 0 37 5 37 2 0 10 -8 17 -17z m-57 -48 c-4 -8 -12 -15 -20 -15 -17 0 -17
-10 0 -32 11 -15 17 -16 39 -5 15 6 27 15 27 20 0 4 5 7 11 7 19 0 -1 -19 -38
-37 -26 -12 -38 -14 -40 -6 -3 7 -10 10 -18 7 -22 -9 -30 35 -9 51 11 7 22 11
26 9 4 -2 9 0 13 6 9 15 15 12 9 -5z m66 -11 c0 -2 -7 -4 -15 -4 -8 0 -15 4
-15 10 0 5 7 7 15 4 8 -4 15 -8 15 -10z m-1534 -34 c-2 -23 0 -38 5 -34 20 12
7 -14 -20 -40 -26 -25 -28 -33 -26 -84 2 -60 11 -92 26 -92 5 0 9 -4 9 -10 0
-18 -22 -10 -27 10 -3 11 -10 17 -16 13 -6 -4 -8 0 -4 10 3 10 3 17 -1 17 -11
0 -13 98 -2 105 6 3 7 11 4 17 -5 7 -2 8 5 4 8 -6 11 -2 9 10 -2 13 3 19 15
18 12 -1 16 3 13 15 -3 9 -8 30 -11 46 -5 23 -4 26 4 15 9 -13 11 -13 11 3 0
9 2 17 5 17 3 0 4 -18 1 -40z m1918 8 c-5 -8 -2 -9 9 -5 10 4 20 0 26 -11 6
-9 11 -12 11 -6 0 15 34 24 50 14 8 -5 6 -10 -7 -15 -35 -16 -63 -15 -63 3 0
14 -2 14 -9 3 -5 -7 -14 -10 -20 -7 -14 9 -14 36 0 36 5 0 7 -5 3 -12z m-1795
-16 c-18 -12 -23 -13 -30 -1 -5 8 -9 9 -9 4 0 -6 -13 -16 -30 -22 -23 -9 -32
-8 -41 3 -9 11 -8 14 2 15 46 5 60 7 64 10 2 2 17 4 34 5 31 1 31 1 10 -14z
m857 1 c-6 -17 -5 -17 8 0 12 16 36 24 36 11 0 -3 -6 -12 -14 -20 -21 -21 -46
-17 -46 6 0 11 5 20 11 20 6 0 8 -8 5 -17z m-766 -36 c13 -9 19 -17 13 -17 -7
0 -15 5 -18 10 -4 6 -11 8 -16 5 -5 -4 -9 -1 -9 5 0 6 -4 8 -10 5 -5 -3 -10
-1 -10 4 0 6 -8 11 -17 12 -15 0 -15 2 2 9 13 5 24 4 30 -4 6 -7 21 -20 35
-29z m1315 23 c-3 -5 -12 -10 -18 -10 -7 0 -6 4 3 10 19 12 23 12 15 0z
m-1288 -91 c2 -26 1 -29 -6 -14 -4 11 -6 26 -3 34 3 9 1 12 -6 7 -7 -4 -12 -2
-12 4 0 29 25 0 27 -31z m779 19 c4 -7 2 -8 -4 -4 -7 4 -12 1 -12 -8 0 -9 -4
-16 -9 -16 -11 0 -32 25 -26 31 9 10 45 7 51 -3z m124 -59 c0 -5 5 -7 10 -4 6
4 10 3 9 -2 -3 -18 2 -33 11 -33 5 0 7 8 3 18 -4 11 -3 14 4 7 16 -15 26 -55
14 -55 -6 0 -11 5 -11 11 0 5 -4 8 -9 4 -5 -3 -13 4 -16 16 -4 11 -9 18 -12
15 -4 -3 -11 -1 -18 4 -8 7 -19 3 -34 -11 l-22 -21 21 -35 c25 -43 13 -68 -17
-34 -17 21 -27 81 -12 81 4 0 9 10 12 21 4 14 11 20 21 16 8 -3 18 -2 21 3 8
13 25 13 25 -1z m-883 -30 c2 -12 -2 -19 -8 -17 -6 2 -10 7 -10 11 1 4 1 15 1
24 0 22 13 8 17 -18z m738 21 c-3 -5 -2 -10 2 -10 5 0 9 -26 9 -57 -1 -43 -5
-58 -16 -61 -12 -2 -15 10 -17 55 -2 41 1 52 7 38 8 -19 9 -19 9 3 1 12 -4 22
-10 22 -5 0 -7 5 -4 10 3 6 11 10 16 10 6 0 7 -4 4 -10z m-471 -64 c-16 -14
-35 -23 -41 -21 -7 2 -13 0 -13 -6 0 -6 -4 -7 -10 -4 -5 3 -10 1 -10 -5 0 -6
-5 -8 -11 -5 -13 9 27 38 55 41 12 1 20 7 18 13 -1 7 2 10 7 7 5 -4 13 -1 16
5 4 5 9 8 12 5 3 -3 -8 -16 -23 -30z m-279 -7 c-4 -11 -2 -20 4 -20 6 -1 16
-2 21 -3 6 0 15 -7 19 -15 5 -8 14 -10 22 -5 12 7 21 9 78 16 13 2 26 -2 28
-7 2 -6 -6 -12 -17 -13 -49 -5 -117 -4 -145 2 -35 7 -88 -11 -78 -28 3 -6 3
-8 -2 -4 -4 4 -14 3 -22 -3 -7 -6 -13 -7 -13 -2 0 14 44 48 58 45 6 -2 12 2
12 7 0 6 6 8 13 5 8 -3 13 3 13 16 0 11 -4 20 -8 20 -4 0 -8 -5 -8 -12 0 -6
-2 -9 -5 -6 -3 3 -3 12 1 21 8 23 36 9 29 -14z m942 3 c9 -5 7 -13 -5 -30 -20
-26 -59 -37 -59 -17 0 8 4 12 9 9 4 -3 8 0 8 5 0 6 7 11 16 11 10 0 14 6 10
15 -6 16 2 19 21 7z m-277 -17 c-10 -12 -10 -18 0 -30 7 -8 8 -15 2 -15 -5 0
-15 7 -22 15 -10 12 -10 18 0 30 7 8 17 15 22 15 6 0 5 -7 -2 -15z m30 -15 c0
-5 -7 -10 -15 -10 -8 0 -15 5 -15 10 0 6 7 10 15 10 8 0 15 -4 15 -10z m-913
-30 c6 -21 23 -28 23 -9 0 8 4 8 13 2 16 -14 50 -13 59 1 6 8 8 7 8 -1 0 -14
-12 -23 -40 -28 -11 -2 -20 1 -20 7 0 5 -7 8 -14 5 -8 -3 -29 1 -47 10 -23 12
-28 18 -18 24 22 13 30 11 36 -11z"/>
<path d="M6710 13670 c-442 -31 -783 -84 -1220 -191 -939 -230 -1827 -677
-2600 -1308 -647 -529 -1182 -1171 -1597 -1916 -203 -365 -343 -679 -479
-1079 -600 -1763 -424 -3738 476 -5351 433 -776 978 -1421 1675 -1981 414
-333 924 -643 1425 -867 860 -384 1769 -577 2715 -577 1614 0 3151 578 4378
1647 165 144 475 456 628 633 405 467 743 983 999 1529 359 760 560 1544 620
2411 13 190 13 682 0 868 -69 963 -342 1894 -807 2747 -324 593 -801 1206
-1289 1657 -1137 1048 -2505 1647 -4039 1768 -178 15 -732 20 -885 10z m570
-2370 l0 -100 -110 0 -110 0 0 100 0 100 110 0 110 0 0 -100z m188 -461 c235
-100 464 -199 510 -220 l82 -38 0 -980 0 -981 -1060 0 -1060 0 2 983 3 982
326 140 c180 77 417 178 528 225 l201 85 0 148 c0 122 3 154 18 180 17 32 17
29 20 -155 l2 -186 428 -183z m-35 525 c13 -5 11 -14 -13 -54 l-29 -48 30 -46
29 -46 -68 0 c-66 0 -68 0 -70 28 -2 15 0 60 3 100 l7 72 48 0 c27 0 55 -3 63
-6z m3232 -761 c-5 -22 -4 -25 8 -14 12 10 19 7 35 -16 37 -53 52 -97 49 -148
l-2 -50 -85 0 c-84 0 -85 0 -84 25 1 14 4 33 9 43 6 13 4 16 -9 11 -14 -6 -16
-2 -10 22 4 16 12 38 18 49 9 18 11 15 16 -22 4 -23 15 -51 25 -63 26 -29 28
-20 5 25 -25 48 -25 94 -2 134 21 38 36 40 27 4z m-7130 -3 c7 -22 21 -27 27
-9 5 16 50 -56 72 -114 24 -65 13 -92 -46 -107 -74 -21 -138 2 -138 49 0 11
10 16 35 17 46 1 50 6 30 44 -13 25 -15 46 -10 86 7 56 19 69 30 34z m-50 -70
c-4 -12 0 -31 9 -45 21 -31 20 -35 -4 -35 -30 0 -41 30 -25 68 15 35 30 44 20
12z m4875 -144 c345 -65 1243 -235 1640 -311 190 -36 400 -75 468 -87 l122
-23 0 -672 0 -673 -1250 0 -1250 0 0 905 c0 855 1 905 18 905 9 0 123 -20 252
-44z m-2440 -881 l0 -885 -1150 0 -1150 0 0 673 0 672 323 59 c177 32 448 82
602 112 154 29 501 93 770 143 270 50 508 94 530 100 22 5 48 9 58 10 16 1 17
-47 17 -884z m4778 825 c-4 -35 -45 -41 -57 -8 -12 31 -5 39 30 36 26 -2 29
-6 27 -28z m-7118 -5 c0 -21 -5 -25 -29 -25 -26 0 -41 14 -41 41 0 5 16 9 35
9 31 0 35 -3 35 -25z m78 -102 l-3 -48 -107 0 -108 0 0 48 0 47 111 0 110 0
-3 -47z m7122 2 l0 -45 -100 -1 c-55 -1 -106 -2 -112 -3 -9 -1 -14 16 -16 47
l-3 47 115 0 116 0 0 -45z m-7186 -560 c-1 -269 -2 -615 -3 -767 l-1 -278 -55
0 -55 0 0 770 0 771 58 -3 57 -3 -1 -490z m7126 -275 l0 -770 -60 0 -60 0 0
770 0 770 60 0 60 0 0 -770z m-7250 496 c0 -48 -1 -49 -72 -62 l-38 -6 0 44 0
45 48 10 c26 6 50 11 55 12 4 0 7 -19 7 -43z m7340 30 l55 -12 3 -43 c3 -41 2
-43 -20 -38 -13 3 -42 9 -65 13 -43 7 -43 7 -43 50 0 24 3 44 8 44 4 -1 32 -7
62 -14z m-12 -1364 l452 -2 0 -195 0 -195 -4140 0 -4140 0 0 195 0 195 1188 2
c1340 3 5949 3 6640 0z m452 -1032 c0 -564 -1 -590 -18 -590 -26 0 -331 -29
-364 -35 l-28 -4 0 328 0 329 -54 36 c-138 92 -370 164 -621 195 -102 13 -353
31 -432 31 l-53 0 -2 -552 -3 -551 -125 -29 c-320 -74 -690 -180 -1081 -307
l-186 -61 -1175 0 -1175 0 -254 84 c-140 47 -333 107 -430 135 -155 45 -645
168 -739 186 -78 15 -70 -46 -70 557 l0 541 -157 -7 c-286 -13 -527 -51 -700
-110 -82 -28 -230 -100 -269 -131 l-29 -23 4 -316 3 -316 -29 0 c-15 0 -88 5
-160 12 l-133 11 0 589 0 588 4140 0 4140 0 0 -590z m-8710 -630 c1220 -49
2406 -282 3476 -683 293 -110 697 -290 951 -423 l141 -75 249 125 c269 134
425 205 658 299 970 389 2074 641 3205 732 239 19 837 40 873 31 l27 -6 0
-135 0 -135 -272 0 c-706 -1 -1508 -95 -2293 -270 -384 -86 -891 -217 -847
-219 8 -1 100 21 205 49 798 206 1524 325 2282 374 273 18 836 32 888 22 l37
-7 0 -148 0 -148 -392 -6 c-426 -7 -625 -17 -988 -48 -1006 -84 -1879 -249
-2635 -496 -324 -106 -505 -179 -797 -320 l-198 -96 -207 100 c-822 399 -1885
662 -3198 792 -423 42 -983 71 -1382 71 l-223 0 0 149 c0 86 4 152 10 156 21
13 418 17 620 6 707 -39 1496 -150 2243 -317 87 -20 161 -33 163 -31 7 6 -287
77 -524 127 -581 121 -1119 200 -1682 246 -214 18 -753 25 -802 11 l-28 -7 0
145 0 145 98 0 c53 0 207 -5 342 -10z m-80 -765 c558 -14 1204 -68 1742 -146
1070 -154 1976 -397 2747 -736 79 -35 149 -63 155 -63 7 0 45 16 86 36 116 56
414 174 640 254 935 329 2143 553 3423 635 272 17 1000 40 1022 31 12 -4 15
-27 15 -120 l0 -114 -267 -6 c-1295 -32 -2297 -155 -3333 -410 -527 -129 -962
-274 -1438 -479 l-153 -66 -77 35 c-932 428 -2262 742 -3632 859 -367 31
-1077 65 -1377 65 l-93 0 0 121 0 120 158 -5 c86 -3 258 -8 382 -11z m9131
-625 c13 -46 9 -182 -7 -244 -20 -82 -83 -208 -139 -278 -60 -76 -161 -158
-255 -207 -77 -41 -232 -91 -278 -91 l-25 0 6 123 c4 67 14 151 22 187 58 242
273 442 556 519 91 25 111 23 120 -9z m-8843 -151 c220 -47 378 -162 456 -329
35 -75 34 -79 -16 -73 -187 22 -328 99 -441 240 -52 65 -117 163 -117 177 0 9
12 8 118 -15z m-497 -13 c120 -25 224 -82 307 -171 40 -41 72 -79 72 -84 0
-15 -41 -21 -140 -21 -184 0 -315 59 -482 218 -32 30 -58 58 -58 62 0 15 226
11 301 -4z m1174 -157 c198 -99 314 -248 360 -463 6 -28 5 -29 -27 -22 -58 11
-171 71 -235 124 -98 82 -190 242 -227 394 -6 27 -5 27 21 17 16 -5 64 -28
108 -50z m7135 -31 c43 -111 60 -195 60 -304 0 -266 -162 -539 -390 -654 -67
-34 -66 -34 -106 56 -43 97 -64 197 -64 303 0 119 17 190 75 306 63 128 148
225 270 307 55 37 105 68 112 68 6 0 26 -37 43 -82z m-8508 -69 c64 -21 148
-66 148 -77 -2 -16 -100 -84 -150 -104 -84 -34 -237 -31 -343 5 -44 15 -95 36
-114 46 l-35 18 66 41 c66 43 141 76 186 85 69 13 183 6 242 -14z m10460 -94
c37 -7 85 -22 108 -32 l41 -18 -22 -30 c-64 -88 -224 -180 -375 -216 -127 -30
-330 -24 -496 16 l-117 28 25 31 c75 91 218 179 344 211 138 36 346 40 492 10z
m-8435 -129 c148 -137 239 -356 218 -522 l-6 -54 -41 23 c-23 12 -76 56 -118
97 -126 123 -186 268 -197 475 l-6 109 44 -34 c24 -19 72 -61 106 -94z m-1453
96 c9 -15 -51 -106 -105 -160 -94 -94 -267 -156 -413 -150 l-69 3 61 80 c83
111 184 188 287 221 44 14 231 19 239 6z m490 -98 c34 -10 65 -20 70 -25 12
-10 -79 -105 -129 -135 -86 -50 -153 -66 -270 -67 -97 -1 -212 17 -231 36 -3
3 19 28 48 56 59 56 143 105 228 132 71 23 204 24 284 3z m5216 -81 c33 -23
48 -43 55 -75 5 -21 13 -28 31 -28 28 0 74 -41 74 -64 0 -9 15 -22 33 -30 49
-20 87 -70 87 -115 0 -86 -64 -120 -226 -121 l-111 0 -11 78 c-7 47 -7 78 -1
80 14 6 11 22 -5 22 -8 0 -28 -14 -45 -31 l-31 -30 -14 33 c-25 60 -35 99 -29
114 10 25 20 15 33 -33 15 -55 30 -78 30 -46 0 30 -37 113 -50 113 -18 0 -50
-82 -50 -128 0 -45 18 -89 45 -112 27 -23 29 -2 2 30 -28 33 -43 89 -32 117 5
13 11 4 24 -35 10 -30 25 -61 34 -69 14 -14 17 -12 32 17 9 17 19 29 22 27 3
-3 2 -38 -2 -76 l-7 -71 -107 0 c-128 0 -172 11 -205 51 -51 61 -22 149 60
184 28 12 34 19 34 45 0 49 56 100 108 100 32 0 47 7 75 35 29 29 42 35 79 35
25 0 54 -7 68 -17z m3230 -42 c-8 -5 -82 -36 -165 -69 -357 -143 -682 -327
-935 -529 -323 -258 -640 -649 -813 -1005 -32 -66 -42 -78 -63 -78 -34 0 -39
20 -19 82 38 114 113 236 254 408 282 345 501 551 791 744 298 198 547 323
830 417 115 38 148 46 120 30z m-1875 -28 c52 -58 176 -252 201 -313 96 -236
67 -401 -123 -712 -55 -90 -68 -106 -82 -98 -41 22 -149 151 -189 227 -71 135
-93 212 -99 343 -8 167 22 266 130 425 37 55 124 155 134 155 2 0 15 -12 28
-27z m-6150 -47 c53 -14 170 -69 179 -85 8 -13 -38 -45 -120 -83 -56 -26 -82
-32 -163 -36 -115 -5 -188 11 -305 66 l-79 38 84 42 c46 23 109 48 139 56 70
19 201 20 265 2z m1057 -230 c55 -79 104 -188 118 -263 17 -85 8 -263 -16
-325 -10 -27 -21 -48 -25 -48 -14 0 -101 104 -133 160 -83 142 -107 277 -82
469 9 68 19 128 23 134 7 12 56 -41 115 -127z m7103 -6 c42 -11 118 -40 168
-65 104 -51 230 -140 224 -158 -2 -6 -28 -21 -58 -33 -202 -82 -492 -69 -687
30 -86 44 -202 139 -202 167 0 11 146 60 222 75 92 17 229 11 333 -16z m-7741
-69 c33 -12 80 -33 105 -48 46 -27 131 -100 131 -113 0 -4 -33 -17 -72 -29
-82 -24 -203 -28 -290 -10 -71 15 -200 76 -271 130 l-58 43 38 14 c133 47 306
52 417 13z m3475 -101 c111 -27 193 -71 266 -145 63 -63 136 -189 119 -204
-10 -10 -295 -104 -299 -99 -1 2 -10 20 -20 41 -24 52 -95 112 -152 128 -107
31 -240 4 -280 -57 -11 -17 -18 -46 -18 -75 0 -88 64 -127 280 -175 293 -65
418 -140 497 -302 32 -65 33 -70 33 -192 0 -124 0 -126 -38 -204 -66 -138
-185 -234 -357 -287 -98 -31 -317 -34 -420 -6 -178 48 -317 152 -384 288 -50
104 -54 127 -24 133 12 3 81 19 151 36 71 16 135 30 142 30 7 0 19 -16 26 -37
17 -52 81 -117 142 -144 45 -21 68 -24 163 -24 106 0 113 1 159 30 59 37 88
86 81 138 -10 83 -65 119 -243 160 -321 76 -454 150 -526 297 -31 62 -32 69
-32 190 0 146 16 199 91 300 65 89 192 164 319 190 79 16 236 11 324 -10z
m-879 -150 l0 -150 -364 0 c-339 0 -365 -1 -369 -17 -7 -31 -9 -262 -2 -283 6
-19 14 -20 291 -20 l284 0 0 -150 0 -150 -290 0 -290 0 2 -167 3 -168 368 -3
367 -2 0 -155 0 -155 -550 0 -550 0 0 778 c0 428 3 782 7 785 3 4 251 7 550 7
l543 0 0 -150z m1905 117 c3 -18 4 -369 3 -782 l-3 -750 -177 -3 -178 -2 0
778 c0 428 3 782 7 786 4 3 82 6 175 5 l167 -1 6 -31z m2728 -137 c40 -10 101
-29 135 -43 82 -34 223 -118 219 -132 -6 -18 -129 -85 -194 -105 -206 -64
-443 -46 -637 50 -81 39 -176 105 -183 126 -8 23 211 105 332 124 82 12 240 3
328 -20z m-6999 -85 c139 -38 251 -115 318 -219 46 -71 43 -74 -67 -75 -87 -1
-166 19 -265 65 -61 29 -93 54 -172 134 -54 54 -98 104 -98 111 0 17 205 5
284 -16z m800 -57 c46 -118 59 -198 53 -328 -4 -89 -10 -130 -29 -182 -26 -69
-75 -153 -106 -181 -17 -16 -20 -15 -39 21 -87 155 -93 375 -14 562 35 85 88
180 99 180 4 0 20 -33 36 -72z m4116 -156 c0 -48 0 -49 -40 -61 l-41 -12 3
-66 c3 -66 3 -66 38 -78 31 -10 35 -16 38 -52 l3 -41 -183 54 c-101 30 -195
57 -210 60 -27 6 -28 9 -28 65 l0 58 53 15 c107 31 362 104 365 105 1 1 2 -21
2 -47z m1691 -155 c101 -26 227 -80 268 -114 l25 -20 -70 -52 c-217 -160 -558
-205 -848 -110 -93 30 -218 89 -223 105 -4 11 86 77 164 121 142 80 246 104
443 99 115 -3 165 -9 241 -29z m-6406 -63 c168 -56 307 -171 360 -297 15 -37
25 -70 21 -74 -12 -13 -157 17 -229 47 -121 50 -239 166 -308 302 -16 32 -29
59 -29 61 0 7 134 -21 185 -39z m4650 -138 c53 -23 65 -57 65 -194 l0 -118
-212 3 -213 2 0 118 c0 97 3 123 18 144 37 54 124 62 168 16 16 -16 23 -19 26
-9 7 20 64 52 91 52 12 0 38 -6 57 -14z m-4016 -468 c7 -46 14 -91 16 -100 2
-13 -6 -19 -34 -24 -20 -3 -65 -12 -101 -19 -36 -8 -66 -13 -67 -12 -5 6 -30
203 -26 207 4 5 142 27 179 29 19 1 23 -7 33 -81z m3757 -29 c-34 -26 -36 -81
-5 -103 32 -22 47 -10 60 52 22 109 61 152 138 152 93 0 147 -65 139 -169 -5
-65 -32 -112 -79 -136 -29 -15 -29 -15 -46 19 -16 35 -16 36 10 60 51 47 47
128 -6 134 -30 4 -36 -6 -58 -91 -24 -97 -102 -139 -184 -99 -96 47 -102 204
-10 261 l30 18 19 -39 18 -38 -26 -21z"/>
<path d="M6900 10706 c-76 -21 -118 -46 -169 -102 -91 -100 -85 -30 -89 -1026
l-3 -878 344 0 344 0 6 248 c9 339 8 1206 -2 1377 -11 189 -42 260 -144 329
-90 60 -191 79 -287 52z"/>
<path d="M6380 10128 c0 -81 0 -151 0 -155 0 -5 21 -8 48 -8 l47 0 0 154 0
153 -47 2 -48 2 0 -148z"/>
<path d="M7450 10120 l0 -160 50 0 50 0 0 160 0 160 -50 0 -50 0 0 -160z"/>
<path d="M6380 9696 c0 -86 0 -159 0 -163 0 -5 21 -8 46 -8 l45 0 0 160 0 160
-45 3 -46 3 0 -155z"/>
<path d="M7450 9691 c0 -100 4 -161 10 -162 6 -1 27 -2 48 -2 l37 -1 0 159 0
160 -47 3 -48 3 0 -160z"/>
<path d="M6372 9063 l3 -338 48 -3 47 -3 0 340 0 341 -50 0 -50 0 2 -337z"/>
<path d="M7450 9060 l0 -340 50 0 50 0 0 340 0 340 -50 0 -50 0 0 -340z"/>
<path d="M8632 10076 c-89 -29 -151 -91 -189 -186 -16 -41 -18 -98 -21 -607
l-3 -563 300 0 301 0 0 560 c0 536 -1 562 -20 613 -42 113 -142 186 -262 193
-38 2 -81 -2 -106 -10z"/>
<path d="M9120 9735 l0 -155 50 0 50 0 0 155 0 155 -50 0 -50 0 0 -155z"/>
<path d="M9882 9795 c-61 -19 -108 -59 -140 -118 l-27 -52 -3 -452 -3 -453
240 0 241 0 0 438 c0 498 -2 514 -70 582 -25 25 -57 44 -91 54 -63 19 -90 19
-147 1z"/>
<path d="M8230 9381 l0 -231 45 0 45 0 2 208 c0 114 1 216 2 227 1 17 -6 20
-47 23 l-47 3 0 -230z"/>
<path d="M9120 9310 l0 -160 50 0 50 0 0 160 0 160 -50 0 -50 0 0 -160z"/>
<path d="M9537 9463 c-4 -3 -7 -75 -7 -160 l0 -153 50 0 50 0 0 160 0 160 -43
0 c-24 0 -47 -3 -50 -7z"/>
<path d="M10260 9305 l0 -155 50 0 50 0 0 155 0 155 -50 0 -50 0 0 -155z"/>
<path d="M8230 8880 l0 -160 45 0 45 0 0 160 0 160 -45 0 -45 0 0 -160z"/>
<path d="M9120 8880 l0 -160 50 0 50 0 0 160 0 160 -50 0 -50 0 0 -160z"/>
<path d="M9537 9033 c-4 -3 -7 -75 -7 -160 l0 -153 50 0 50 0 0 160 0 160 -43
0 c-24 0 -47 -3 -50 -7z"/>
<path d="M10260 8880 l0 -160 50 0 50 0 0 160 0 160 -50 0 -50 0 0 -160z"/>
<path d="M5235 10076 c-92 -29 -149 -78 -187 -161 l-23 -50 -3 -572 -3 -573
301 0 300 0 0 533 c0 574 -3 603 -53 690 -70 118 -206 173 -332 133z"/>
<path d="M4820 9735 l0 -155 50 0 50 0 0 155 0 155 -50 0 -50 0 0 -155z"/>
<path d="M4130 9795 c-57 -18 -114 -65 -143 -118 -22 -41 -22 -49 -25 -499
l-3 -458 241 0 240 0 0 438 c0 367 -3 447 -16 491 -20 70 -75 125 -145 145
-63 19 -90 19 -149 1z"/>
<path d="M5730 9380 l0 -230 50 0 50 0 0 230 0 230 -50 0 -50 0 0 -230z"/>
<path d="M3770 9311 l0 -161 45 0 45 0 2 145 c0 80 1 151 2 158 1 8 -16 13
-46 15 l-48 3 0 -160z"/>
<path d="M4510 9310 l0 -160 50 0 50 0 0 160 0 160 -50 0 -50 0 0 -160z"/>
<path d="M4827 9463 c-4 -3 -7 -75 -7 -160 l0 -153 50 0 50 0 0 160 0 160 -43
0 c-24 0 -47 -3 -50 -7z"/>
<path d="M3770 8879 l0 -160 48 3 c30 2 47 7 46 16 -1 6 -2 77 -2 157 l-2 145
-45 0 -45 0 0 -161z"/>
<path d="M4517 9033 c-4 -3 -7 -75 -7 -160 l0 -153 50 0 50 0 0 160 0 160 -43
0 c-24 0 -47 -3 -50 -7z"/>
<path d="M4827 9033 c-4 -3 -7 -75 -7 -160 l0 -153 50 0 50 0 0 160 0 160 -43
0 c-24 0 -47 -3 -50 -7z"/>
<path d="M5730 8880 l0 -160 50 0 50 0 0 160 0 160 -50 0 -50 0 0 -160z"/>
<path d="M3108 8449 c-15 -8 -18 -24 -18 -87 0 -83 9 -102 47 -102 31 0 43 28
43 104 0 84 -25 113 -72 85z m40 -93 c3 -61 1 -67 -15 -64 -20 4 -29 50 -18
105 10 57 30 33 33 -41z"/>
<path d="M3362 8448 c-16 -16 -16 -160 0 -176 18 -18 56 -14 68 7 5 11 10 49
10 85 0 56 -3 67 -22 80 -27 19 -40 20 -56 4z m48 -89 c0 -62 -2 -70 -17 -67
-14 2 -19 15 -21 57 -4 63 2 81 23 81 12 0 15 -14 15 -71z"/>
<path d="M3517 8442 c-12 -13 -17 -37 -17 -75 0 -75 13 -107 44 -107 38 0 51
26 50 103 0 56 -4 72 -19 83 -25 19 -39 18 -58 -4z m48 -82 c0 -54 -3 -65 -17
-68 -16 -3 -18 5 -18 68 0 63 2 71 18 68 14 -3 17 -14 17 -68z"/>
<path d="M3672 8448 c-16 -16 -16 -160 0 -176 7 -7 21 -12 33 -12 36 0 45 20
45 96 0 64 -3 75 -22 88 -27 19 -40 20 -56 4z m48 -88 c0 -54 -3 -70 -14 -70
-18 0 -25 24 -22 75 5 64 5 65 21 65 12 0 15 -14 15 -70z"/>
<path d="M3935 8446 c-27 -19 -34 -126 -11 -161 19 -28 47 -32 70 -9 24 24 22
145 -2 167 -23 21 -33 21 -57 3z m43 -90 c3 -61 1 -67 -15 -64 -14 2 -19 15
-21 57 -4 61 3 84 21 79 7 -3 13 -29 15 -72z"/>
<path d="M4268 8449 c-15 -8 -18 -24 -18 -87 0 -83 9 -102 47 -102 31 0 43 28
43 104 0 84 -25 113 -72 85z m40 -93 c3 -61 1 -67 -15 -64 -14 2 -19 15 -21
57 -4 61 3 84 21 79 7 -3 13 -29 15 -72z"/>
<path d="M4516 8438 c-16 -23 -21 -102 -10 -146 9 -34 53 -41 76 -12 26 33 25
133 -2 160 -26 26 -45 25 -64 -2z m49 -79 c0 -53 -3 -64 -17 -67 -16 -3 -18 5
-18 61 0 35 3 67 7 71 18 17 28 -6 28 -65z"/>
<path d="M4776 8444 c-19 -18 -22 -133 -6 -165 12 -21 50 -25 68 -7 7 7 12 43
12 90 0 66 -3 79 -19 88 -27 14 -37 13 -55 -6z m52 -78 c3 -56 -10 -92 -29
-80 -11 6 -12 127 -2 138 17 16 28 -5 31 -58z"/>
<path d="M4926 8438 c-10 -14 -16 -44 -16 -78 0 -85 42 -127 84 -84 24 24 22
145 -2 167 -25 23 -48 21 -66 -5z m52 -81 c3 -62 1 -67 -18 -67 -18 0 -20 6
-20 63 0 35 3 67 7 71 17 17 28 -6 31 -67z"/>
<path d="M5370 8440 c-16 -16 -20 -33 -20 -84 0 -68 14 -96 48 -96 36 0 46 18
50 88 4 61 1 73 -17 91 -26 26 -36 26 -61 1z m45 -81 c0 -53 -3 -64 -17 -67
-16 -3 -18 5 -18 61 0 35 3 67 7 71 18 17 28 -6 28 -65z"/>
<path d="M5626 8444 c-19 -18 -22 -133 -6 -165 12 -21 50 -25 68 -7 7 7 12 43
12 90 0 66 -3 79 -19 88 -27 14 -37 13 -55 -6z m49 -37 c4 -13 5 -43 3 -68 -2
-32 -8 -45 -20 -47 -16 -3 -18 5 -18 67 0 56 3 71 15 71 8 0 17 -10 20 -23z"/>
<path d="M5776 8438 c-18 -26 -22 -129 -6 -159 14 -26 55 -24 74 3 24 34 21
133 -4 158 -26 26 -45 25 -64 -2z m49 -79 c0 -53 -3 -64 -17 -67 -16 -3 -18 5
-18 61 0 35 3 67 7 71 18 17 28 -6 28 -65z"/>
<path d="M6037 8442 c-13 -14 -17 -37 -17 -88 0 -74 10 -94 45 -94 36 0 45 20
45 102 0 66 -3 79 -19 88 -27 14 -35 13 -54 -8z m48 -35 c4 -13 5 -43 3 -68
-2 -32 -8 -45 -20 -47 -16 -3 -18 5 -18 61 0 35 3 67 7 70 12 13 23 7 28 -16z"/>
<path d="M6187 8442 c-23 -25 -23 -129 -1 -160 20 -29 50 -28 70 3 23 35 16
142 -11 161 -25 19 -39 18 -58 -4z m48 -83 c0 -53 -3 -64 -17 -67 -16 -3 -18
5 -18 61 0 35 3 67 7 71 18 17 28 -6 28 -65z"/>
<path d="M6528 8449 c-15 -8 -18 -24 -18 -87 0 -83 9 -102 47 -102 31 0 43 28
43 104 0 84 -25 113 -72 85z m40 -93 c3 -61 1 -67 -15 -64 -13 2 -19 14 -21
47 -4 55 5 94 21 88 7 -2 13 -29 15 -71z"/>
<path d="M6677 8442 c-20 -21 -24 -131 -7 -163 12 -22 52 -25 69 -5 6 7 12 46
12 86 1 60 -2 76 -17 87 -24 18 -38 16 -57 -5z m48 -83 c0 -53 -3 -64 -17 -67
-16 -3 -18 5 -18 61 0 35 3 67 7 71 18 17 28 -6 28 -65z"/>
<path d="M6936 8444 c-19 -18 -22 -133 -6 -165 12 -21 50 -25 68 -7 7 7 12 43
12 90 0 66 -3 79 -19 88 -27 14 -37 13 -55 -6z m49 -37 c4 -13 5 -43 3 -68 -2
-32 -8 -45 -20 -47 -16 -3 -18 5 -18 67 0 56 3 71 15 71 8 0 17 -10 20 -23z"/>
<path d="M7092 8444 c-19 -13 -22 -24 -22 -83 0 -77 14 -105 50 -99 32 4 50
41 50 106 0 39 -5 57 -20 72 -24 24 -29 24 -58 4z m46 -78 c3 -56 -10 -92 -29
-80 -11 6 -12 127 -2 138 17 16 28 -5 31 -58z"/>
<path d="M7236 8438 c-10 -14 -16 -44 -16 -78 0 -61 19 -100 50 -100 36 0 50
27 50 100 0 60 -3 71 -22 84 -30 22 -44 20 -62 -6z m52 -81 c3 -62 1 -67 -18
-67 -18 0 -20 6 -20 63 0 35 3 67 7 71 17 17 28 -6 31 -67z"/>
<path d="M7389 8444 c-17 -20 -14 -151 3 -171 16 -19 56 -16 68 6 5 11 10 49
10 85 0 56 -3 67 -22 80 -29 20 -42 20 -59 0z m49 -88 c3 -61 1 -67 -15 -64
-14 2 -19 15 -21 57 -4 61 3 84 21 79 7 -3 13 -29 15 -72z"/>
<path d="M7548 8449 c-15 -8 -18 -24 -18 -87 0 -83 9 -102 47 -102 31 0 43 28
43 104 0 84 -25 113 -72 85z m42 -89 c0 -53 -3 -70 -14 -70 -19 0 -27 39 -20
94 4 29 12 46 20 46 11 0 14 -18 14 -70z"/>
<path d="M7776 8438 c-23 -32 -21 -129 2 -158 14 -18 25 -21 44 -17 30 8 38
30 38 105 0 79 -49 120 -84 70z m52 -82 c3 -61 1 -67 -15 -64 -14 2 -19 15
-21 57 -4 61 3 84 21 79 7 -3 13 -29 15 -72z"/>
<path d="M8036 8444 c-12 -11 -16 -35 -16 -88 0 -76 9 -96 45 -96 36 0 45 20
45 96 0 74 -13 104 -45 104 -7 0 -21 -7 -29 -16z m42 -87 c2 -55 0 -67 -13
-67 -15 0 -18 18 -17 80 0 54 2 62 15 58 7 -3 13 -29 15 -71z"/>
<path d="M8290 8440 c-16 -16 -20 -33 -20 -81 0 -72 12 -99 45 -99 36 0 55 35
55 102 0 45 -5 63 -20 78 -11 11 -24 20 -30 20 -5 0 -19 -9 -30 -20z m48 -74
c3 -56 -10 -92 -29 -80 -11 6 -12 127 -2 138 17 16 28 -5 31 -58z"/>
<path d="M8440 8440 c-15 -15 -20 -33 -20 -78 0 -67 19 -102 55 -102 33 0 45
27 45 103 0 49 -4 68 -18 80 -24 22 -38 21 -62 -3z m48 -84 c3 -61 1 -67 -15
-64 -14 2 -19 15 -21 57 -4 61 3 84 21 79 7 -3 13 -29 15 -72z"/>
<path d="M8885 8446 c-14 -10 -20 -29 -22 -72 -4 -69 12 -107 47 -112 36 -6
50 22 50 99 0 59 -3 70 -22 83 -27 19 -29 19 -53 2z m40 -87 c0 -50 -3 -64
-15 -64 -11 0 -16 14 -18 54 -4 61 3 84 21 78 8 -2 12 -25 12 -68z"/>
<path d="M9145 8446 c-13 -10 -20 -30 -23 -72 -5 -74 9 -114 40 -114 43 0 52
15 56 88 4 61 1 73 -17 91 -25 25 -31 26 -56 7z m43 -90 c3 -61 1 -67 -15 -64
-14 2 -19 15 -21 57 -4 61 3 84 21 79 7 -3 13 -29 15 -72z"/>
<path d="M9303 8450 c-21 -9 -23 -16 -23 -88 0 -47 5 -83 12 -90 18 -18 56
-14 68 7 16 32 13 147 -6 165 -17 18 -20 18 -51 6z m35 -93 c2 -55 0 -67 -13
-67 -12 0 -15 14 -15 71 0 52 3 70 13 67 7 -3 13 -29 15 -71z"/>
<path d="M9452 8444 c-19 -13 -22 -24 -22 -80 0 -76 12 -104 44 -104 37 0 48
23 49 101 1 59 -2 74 -18 85 -24 17 -26 17 -53 -2z m42 -30 c15 -40 2 -124
-20 -124 -10 0 -14 16 -14 63 0 35 3 67 7 70 11 11 20 8 27 -9z"/>
<path d="M9600 8440 c-15 -15 -20 -33 -20 -74 0 -79 13 -106 50 -106 38 0 50
27 50 110 0 49 -4 61 -22 74 -29 20 -34 20 -58 -4z m45 -81 c0 -50 -3 -64 -15
-64 -11 0 -16 14 -18 54 -4 61 3 84 21 78 8 -2 12 -25 12 -68z"/>
<path d="M9860 8440 c-16 -16 -20 -33 -20 -81 0 -72 12 -99 45 -99 36 0 55 35
55 102 0 45 -5 63 -20 78 -11 11 -24 20 -30 20 -5 0 -19 -9 -30 -20z m45 -81
c0 -50 -3 -64 -15 -64 -11 0 -16 14 -18 54 -4 61 3 84 21 78 8 -2 12 -25 12
-68z"/>
<path d="M10086 8438 c-18 -26 -21 -86 -5 -140 8 -31 15 -38 34 -38 36 0 55
35 55 102 0 45 -5 63 -20 78 -26 26 -45 25 -64 -2z m49 -79 c0 -50 -3 -64 -15
-64 -11 0 -16 14 -18 54 -4 61 3 84 21 78 8 -2 12 -25 12 -68z"/>
<path d="M10352 8444 c-19 -13 -22 -24 -22 -80 0 -76 12 -104 44 -104 36 0 46
21 47 100 1 60 -2 76 -17 87 -23 16 -25 16 -52 -3z m43 -85 c0 -53 -3 -64 -17
-67 -16 -3 -18 5 -18 61 0 35 3 67 7 71 18 17 28 -6 28 -65z"/>
<path d="M10500 8440 c-15 -15 -20 -33 -20 -78 0 -67 19 -102 55 -102 33 0 45
27 45 103 0 49 -4 68 -18 80 -24 22 -38 21 -62 -3z m48 -84 c3 -61 1 -67 -15
-64 -14 2 -19 15 -21 57 -4 61 3 84 21 79 7 -3 13 -29 15 -72z"/>
<path d="M10658 8449 c-15 -8 -18 -24 -18 -87 0 -82 9 -102 45 -102 36 0 45
20 45 96 0 92 -23 122 -72 93z m40 -92 c2 -55 0 -67 -13 -67 -12 0 -15 14 -15
71 0 52 3 70 13 67 7 -3 13 -29 15 -71z"/>
<path d="M10804 8446 c-16 -12 -19 -27 -19 -84 0 -44 5 -75 14 -85 18 -23 58
-21 71 2 11 22 13 140 2 157 -13 20 -47 25 -68 10z m44 -89 c2 -53 0 -67 -11
-67 -19 0 -27 22 -27 70 0 95 34 92 38 -3z"/>
<path d="M10958 8449 c-15 -8 -18 -24 -18 -87 0 -82 9 -102 45 -102 36 0 45
20 45 95 0 57 -4 75 -18 88 -21 19 -30 20 -54 6z m40 -92 c2 -54 0 -67 -12
-67 -21 0 -27 47 -18 128 1 8 8 12 15 10 7 -3 13 -29 15 -71z"/>
<path d="M3235 8440 c-3 -5 -1 -10 4 -10 7 0 11 -32 11 -85 0 -69 3 -85 15
-85 12 0 15 17 15 95 0 87 -2 95 -19 95 -11 0 -23 -4 -26 -10z"/>
<path d="M3800 8440 c0 -5 4 -10 10 -10 5 0 10 -37 12 -82 2 -54 7 -83 16 -86
9 -3 12 20 12 92 0 96 0 96 -25 96 -14 0 -25 -4 -25 -10z"/>
<path d="M4060 8441 c0 -6 5 -13 10 -16 6 -3 10 -42 10 -86 0 -60 3 -80 13
-77 8 3 13 34 15 96 l3 92 -26 0 c-14 0 -25 -4 -25 -9z"/>
<path d="M4390 8440 c0 -5 5 -10 10 -10 6 0 10 -35 10 -86 0 -64 3 -85 13 -82
8 3 13 34 15 96 l3 92 -26 0 c-14 0 -25 -4 -25 -10z"/>
<path d="M4650 8441 c0 -6 5 -13 10 -16 6 -3 10 -42 10 -86 0 -46 4 -79 10
-79 6 0 10 31 10 73 0 39 3 82 6 95 5 19 2 22 -20 22 -14 0 -26 -4 -26 -9z"/>
<path d="M5060 8440 c0 -5 5 -10 10 -10 6 0 10 -35 10 -85 0 -69 3 -85 15 -85
12 0 15 17 15 95 0 95 0 95 -25 95 -14 0 -25 -4 -25 -10z"/>
<path d="M5166 8442 c-3 -6 1 -12 9 -16 12 -4 15 -24 15 -86 0 -44 4 -80 9
-80 14 0 17 20 17 105 -1 74 -3 80 -23 83 -11 2 -24 -1 -27 -6z"/>
<path d="M5496 8441 c-3 -5 1 -11 9 -15 12 -4 15 -24 15 -87 0 -60 3 -80 13
-77 8 3 13 34 15 96 l3 92 -25 0 c-14 0 -27 -4 -30 -9z"/>
<path d="M5910 8440 c0 -5 5 -10 10 -10 6 0 10 -35 10 -86 0 -64 3 -85 13 -82
8 3 13 34 15 96 l3 92 -26 0 c-14 0 -25 -4 -25 -10z"/>
<path d="M6315 8440 c-3 -5 1 -10 9 -10 13 0 16 -15 16 -86 0 -64 3 -85 13
-82 8 3 13 34 15 96 l3 92 -25 0 c-14 0 -28 -4 -31 -10z"/>
<path d="M6800 8440 c0 -5 7 -10 15 -10 12 0 15 -16 15 -86 0 -64 3 -85 13
-82 8 3 13 34 15 96 l3 92 -31 0 c-16 0 -30 -4 -30 -10z"/>
<path d="M7910 8441 c0 -6 5 -13 10 -16 6 -3 10 -42 10 -86 0 -46 4 -79 10
-79 6 0 10 6 10 13 0 6 2 49 5 95 4 81 4 82 -21 82 -13 0 -24 -4 -24 -9z"/>
<path d="M8160 8440 c0 -5 4 -10 10 -10 5 0 10 -36 12 -80 4 -112 22 -107 26
8 l3 92 -26 0 c-14 0 -25 -4 -25 -10z"/>
<path d="M8570 8440 c0 -5 5 -10 10 -10 6 0 10 -35 10 -85 0 -69 3 -85 15 -85
12 0 15 17 15 95 0 95 0 95 -25 95 -14 0 -25 -4 -25 -10z"/>
<path d="M8680 8441 c0 -6 5 -13 11 -16 6 -4 9 -38 8 -83 -2 -61 1 -77 12 -77
11 0 15 21 17 93 l3 92 -26 0 c-14 0 -25 -4 -25 -9z"/>
<path d="M9010 8440 c0 -5 5 -10 10 -10 6 0 10 -35 10 -85 0 -69 3 -85 15 -85
12 0 15 17 15 95 0 95 0 95 -25 95 -14 0 -25 -4 -25 -10z"/>
<path d="M9725 8440 c-3 -5 1 -10 9 -10 13 0 16 -15 16 -85 0 -69 3 -85 15
-85 12 0 15 17 15 95 0 94 0 95 -24 95 -14 0 -28 -4 -31 -10z"/>
<path d="M10215 8440 c-3 -5 1 -10 9 -10 13 0 16 -15 16 -85 0 -50 4 -85 10
-85 6 0 10 3 10 8 1 4 3 46 5 95 5 87 5 87 -19 87 -14 0 -28 -4 -31 -10z"/>
<path d="M11080 8440 c0 -5 4 -10 10 -10 5 0 10 -37 12 -82 2 -54 7 -83 16
-86 9 -3 12 20 12 92 0 96 0 96 -25 96 -14 0 -25 -4 -25 -10z"/>
<path d="M6627 7882 c-20 -22 -22 -65 -3 -81 7 -6 16 -34 19 -61 3 -28 9 -55
12 -60 3 -6 37 -10 76 -10 l69 0 0 -55 0 -55 -49 0 c-64 0 -81 -17 -81 -81 l0
-49 -65 0 -65 0 0 64 c0 56 -3 67 -22 80 -12 9 -37 16 -54 16 -17 0 -37 7 -44
15 -17 21 -63 19 -83 -3 -48 -53 19 -127 79 -87 38 25 64 20 64 -12 1 -49 12
-108 21 -118 6 -5 46 -12 89 -14 l80 -3 0 -49 0 -49 -118 0 c-106 0 -121 2
-137 20 -10 11 -26 20 -37 20 -24 0 -58 -35 -58 -60 0 -44 72 -79 98 -47 7 9
43 11 131 9 l121 -3 0 -40 0 -39 -113 0 c-84 0 -118 4 -133 15 -51 38 -118 -5
-98 -63 14 -40 55 -51 89 -24 25 20 40 22 141 22 l114 0 0 -45 0 -45 -85 0
c-83 0 -86 -1 -95 -26 -6 -14 -10 -50 -10 -81 l0 -55 -32 5 c-18 3 -45 9 -60
12 -52 14 -91 -61 -50 -98 25 -23 55 -21 77 3 11 13 31 20 52 20 63 0 73 12
73 90 l0 70 65 0 65 0 0 -55 c0 -50 2 -56 26 -65 14 -6 43 -10 65 -10 l39 0 0
-65 0 -65 -68 0 c-40 0 -73 -5 -80 -12 -7 -7 -12 -30 -12 -51 0 -25 -6 -44
-16 -51 -22 -17 -21 -76 1 -92 26 -19 59 -17 78 4 21 23 22 54 1 93 -24 48
-14 59 56 59 94 0 100 6 100 99 l0 79 35 4 c20 2 38 2 40 -1 3 -2 5 -55 5
-117 0 -88 -4 -119 -17 -142 -34 -59 26 -115 82 -78 29 19 34 66 10 86 -13 11
-15 35 -13 134 l3 121 45 0 45 0 3 -121 c2 -99 0 -123 -13 -134 -35 -29 -5
-100 43 -100 45 0 69 63 40 103 -9 12 -12 52 -10 132 l3 115 40 0 39 0 0 -80
c0 -94 6 -100 98 -100 67 0 84 -16 58 -55 -24 -36 -24 -76 0 -99 21 -21 57
-20 77 2 21 23 22 81 2 88 -10 4 -15 21 -15 54 0 57 -5 60 -96 60 l-64 0 0 65
0 65 44 0 c71 0 76 4 76 72 l0 59 58 -3 57 -3 5 -65 c4 -56 8 -66 30 -77 14
-7 39 -13 56 -13 18 0 38 -8 49 -20 23 -25 57 -26 78 -2 21 23 22 51 1 81 -14
19 -22 22 -48 16 -17 -3 -48 -9 -68 -12 l-38 -5 0 58 c0 84 -5 88 -100 92
l-80 4 0 49 0 49 118 0 c105 0 119 -2 135 -20 9 -11 26 -20 37 -20 11 0 29 9
40 20 55 55 -22 132 -84 85 -15 -11 -49 -15 -133 -15 l-113 0 0 40 0 39 113 3
c77 2 121 -1 141 -10 38 -18 74 -8 87 25 23 62 -37 104 -91 64 -26 -18 -43
-21 -140 -21 l-110 0 0 50 0 50 80 0 c55 0 82 4 85 13 8 21 13 61 14 105 1 39
3 42 29 42 15 -1 38 -7 52 -15 34 -19 47 -18 70 5 54 54 -15 131 -76 85 -10
-8 -36 -15 -56 -15 -58 0 -78 -27 -78 -100 l0 -60 -60 0 -60 0 0 55 c0 64 -13
75 -85 75 -39 0 -46 3 -41 16 3 9 6 33 6 55 l0 39 64 0 c92 0 96 3 96 65 0 34
5 57 15 65 20 16 19 64 -1 84 -37 38 -94 8 -94 -48 0 -19 7 -39 16 -46 8 -8
14 -25 12 -39 -3 -25 -6 -26 -83 -31 l-80 -5 -3 -77 -3 -78 -39 0 -40 0 0 115
c0 89 4 121 16 140 33 51 -28 106 -86 75 -24 -13 -28 -71 -5 -90 12 -10 15
-37 15 -126 l0 -114 -50 0 -50 0 0 114 c0 89 3 116 15 126 8 7 15 25 15 40 0
61 -80 81 -110 27 -14 -25 -13 -30 3 -58 13 -24 17 -54 17 -140 l0 -109 -40 0
-40 0 0 68 c0 37 -4 73 -9 81 -6 9 -31 14 -77 15 -67 1 -69 2 -72 28 -2 15 4
38 12 50 21 30 20 54 -4 78 -25 25 -62 26 -83 2z"/>
<path d="M4960 7216 l0 -596 575 0 575 0 -2 466 -3 467 -86 52 c-191 115 -489
180 -916 201 l-143 7 0 -597z"/>
<path d="M8855 7799 c-262 -25 -575 -99 -720 -171 -22 -11 -59 -36 -82 -55
l-43 -34 0 -460 0 -459 578 2 577 3 3 593 2 592 -112 -1 c-62 -1 -153 -5 -203
-10z"/>
<path d="M5158 6223 c7 -3 16 -2 19 1 4 3 -2 6 -13 5 -11 0 -14 -3 -6 -6z"/>
<path d="M5541 6116 c2 -2 108 -38 234 -79 127 -42 288 -97 359 -122 71 -25
131 -44 133 -42 8 9 -318 126 -551 198 -149 46 -186 55 -175 45z"/>
<path d="M8370 6031 c-180 -59 -382 -133 -377 -137 4 -4 528 174 536 182 10 9
-20 1 -159 -45z"/>
<path d="M8307 4585 c-16 -32 -22 -57 -16 -60 8 -6 21 17 43 79 5 14 10 16 17
9 8 -8 4 -32 -12 -82 -22 -69 -39 -91 -39 -51 0 11 -4 20 -10 20 -16 0 -12
-26 8 -50 l18 -22 17 38 c9 22 21 52 27 68 15 41 24 25 16 -28 -4 -27 -18 -59
-33 -76 -27 -32 -25 -52 2 -30 27 22 45 67 45 108 0 48 -28 132 -44 132 -6 0
-24 -25 -39 -55z"/>
<path d="M8855 3666 c-44 -11 -75 -21 -70 -23 43 -14 150 -41 153 -38 2 1 2
21 0 42 l-3 39 -80 -20z"/>
<path d="M8948 3339 c-14 -8 -18 -24 -18 -74 l0 -63 43 1 42 2 3 60 c3 47 0
62 -14 72 -21 15 -33 16 -56 2z"/>
<path d="M8761 3326 c-7 -8 -11 -37 -9 -67 l3 -53 43 -1 42 -1 0 56 c0 31 -5
61 -12 68 -16 16 -53 15 -67 -2z"/>
<path d="M1685 1470 c3 -5 11 -10 16 -10 6 0 7 5 4 10 -3 6 -11 10 -16 10 -6
0 -7 -4 -4 -10z"/>
<path d="M1277 1429 c7 -7 15 -10 18 -7 3 3 -2 9 -12 12 -14 6 -15 5 -6 -5z"/>
<path d="M1370 1356 c0 -2 8 -10 18 -17 15 -13 16 -12 3 4 -13 16 -21 21 -21
13z"/>
<path d="M950 1430 c-9 -6 -10 -10 -3 -10 6 0 15 5 18 10 8 12 4 12 -15 0z"/>
<path d="M1690 1030 c0 -5 5 -10 11 -10 5 0 7 5 4 10 -3 6 -8 10 -11 10 -2 0
-4 -4 -4 -10z"/>
<path d="M1954 1123 c2 -9 8 -19 15 -21 10 -3 10 0 2 17 -14 25 -20 27 -17 4z"/>
<path d="M2467 1124 c3 -7 9 -14 14 -14 14 0 10 17 -5 23 -10 4 -13 1 -9 -9z"/>
<path d="M2540 1090 c0 -5 5 -10 11 -10 5 0 7 5 4 10 -3 6 -8 10 -11 10 -2 0
-4 -4 -4 -10z"/>
<path d="M2716 1124 c-9 -8 -14 -19 -11 -24 3 -5 -1 -10 -7 -12 -7 -3 12 -4
44 -4 50 1 55 3 47 18 -8 16 -39 38 -53 38 -2 0 -12 -7 -20 -16z"/>
<path d="M815 1020 c-3 -6 1 -7 9 -4 18 7 21 14 7 14 -6 0 -13 -4 -16 -10z"/>
<path d="M1850 801 c0 -5 8 -15 18 -22 15 -12 16 -12 5 2 -7 9 -10 19 -6 22 3
4 1 7 -5 7 -7 0 -12 -4 -12 -9z"/>
<path d="M1935 770 c-3 -6 1 -7 9 -4 18 7 21 14 7 14 -6 0 -13 -4 -16 -10z"/>
</g>
</svg>
